<mxfile host="app.diagrams.net" modified="2024-06-24T08:32:29.497Z" agent="Mozilla/5.0 (Windows NT 10.0; Win64; x64) AppleWebKit/537.36 (KHTML, like Gecko) Chrome/126.0.0.0 Safari/537.36" etag="Ru1uq1zvm6iNHUX3j6cb" version="24.5.4" type="device">
  <diagram name="Page-1" id="xW-bHU2al_uvpoQPwyNc">
    <mxGraphModel dx="75" dy="1633" grid="1" gridSize="10" guides="1" tooltips="1" connect="1" arrows="1" fold="1" page="1" pageScale="1" pageWidth="850" pageHeight="1100" math="0" shadow="0">
      <root>
        <mxCell id="0" />
        <mxCell id="1" parent="0" />
        <mxCell id="78AGSwn7mPcis8Uo8uip-21" value="" style="strokeWidth=1;shadow=0;dashed=0;align=center;html=1;shape=mxgraph.mockup.containers.browserWindow;rSize=0;strokeColor=#666666;mainText=,;recursiveResize=0;rounded=0;labelBackgroundColor=none;fontFamily=Verdana;fontSize=12" vertex="1" parent="1">
          <mxGeometry x="2610" y="890" width="1050" height="1160" as="geometry" />
        </mxCell>
        <mxCell id="78AGSwn7mPcis8Uo8uip-22" value="Page 1" style="strokeWidth=1;shadow=0;dashed=0;align=center;html=1;shape=mxgraph.mockup.containers.anchor;fontSize=17;fontColor=#666666;align=left;" vertex="1" parent="78AGSwn7mPcis8Uo8uip-21">
          <mxGeometry x="60" y="12" width="110" height="26" as="geometry" />
        </mxCell>
        <mxCell id="78AGSwn7mPcis8Uo8uip-23" value="https://www.default.com" style="strokeWidth=1;shadow=0;dashed=0;align=center;html=1;shape=mxgraph.mockup.containers.anchor;rSize=0;fontSize=17;fontColor=#666666;align=left;" vertex="1" parent="78AGSwn7mPcis8Uo8uip-21">
          <mxGeometry x="130" y="60" width="250" height="26" as="geometry" />
        </mxCell>
        <mxCell id="78AGSwn7mPcis8Uo8uip-24" value="" style="verticalLabelPosition=bottom;shadow=0;dashed=0;align=center;html=1;verticalAlign=top;strokeWidth=1;shape=mxgraph.mockup.graphics.simpleIcon;strokeColor=#999999;fillColor=#ffffff;rounded=0;labelBackgroundColor=none;fontFamily=Verdana;fontSize=12;fontColor=#000000;" vertex="1" parent="78AGSwn7mPcis8Uo8uip-21">
          <mxGeometry y="160" width="1050" height="410" as="geometry" />
        </mxCell>
        <mxCell id="78AGSwn7mPcis8Uo8uip-25" value="&lt;b&gt;&lt;font style=&quot;font-size: 46px;&quot;&gt;Pfadi MH&lt;/font&gt;&lt;/b&gt;" style="text;html=1;points=[];align=left;verticalAlign=top;spacingTop=-4;fontSize=30;fontFamily=Verdana" vertex="1" parent="78AGSwn7mPcis8Uo8uip-21">
          <mxGeometry x="410" y="320" width="170" height="50" as="geometry" />
        </mxCell>
        <mxCell id="78AGSwn7mPcis8Uo8uip-26" value="Lorem ipsum dolor sit amet, consectetur adipisicing elit, sed do eiusmod tempor incididunt ut labore et dolore magna aliqua. Ut enim ad minim veniam, quis nostrud exercitation ullamco laboris nisi ut aliquip ex ea commodo consequat. Duis aute irure dolor in reprehenderit in voluptate velit esse cillum dolore eu fugiat nulla pariatur. Excepteur sint occaecat cupidatat non proident, sunt in culpa qui officia deserunt mollit anim id est laborum.&#xa;Sed ut perspiciatis unde omnis iste natus error sit voluptatem accusantium doloremque laudantium, totam rem aperiam, eaque ipsa quae ab illo inventore veritatis et quasi architecto beatae vitae dicta sunt explicabo. Nemo enim ipsam voluptatem quia voluptas sit aspernatur aut odit aut fugit, sed quia consequuntur magni dolores eos qui ratione voluptatem sequi nesciunt. Neque porro quisquam est, qui dolorem ipsum quia dolor sit amet, consectetur, adipisci velit, sed quia non numquam eius modi tempora incidunt ut labore et dolore magnam aliquam quaerat voluptatem. Ut enim ad minima veniam, quis nostrum exercitationem ullam corporis suscipit laboriosam, nisi ut aliquid ex ea commodi consequatur? Quis autem vel eum iure reprehenderit qui in ea voluptate velit esse quam nihil molestiae consequatur, vel illum qui dolorem eum fugiat quo voluptas nulla pariatur?" style="text;spacingTop=-5;whiteSpace=wrap;html=1;align=left;fontSize=12;fontFamily=Helvetica;fillColor=none;strokeColor=none;rounded=0;shadow=1;labelBackgroundColor=none;" vertex="1" parent="78AGSwn7mPcis8Uo8uip-21">
          <mxGeometry x="250" y="670" width="570" height="240" as="geometry" />
        </mxCell>
        <mxCell id="78AGSwn7mPcis8Uo8uip-27" value="Wer sind mir?" style="text;html=1;points=[];align=left;verticalAlign=top;spacingTop=-4;fontSize=30;fontFamily=Verdana" vertex="1" parent="78AGSwn7mPcis8Uo8uip-21">
          <mxGeometry x="250" y="610" width="340" height="50" as="geometry" />
        </mxCell>
        <mxCell id="78AGSwn7mPcis8Uo8uip-41" value="Copyright PfadiMH" style="text;html=1;align=center;verticalAlign=middle;whiteSpace=wrap;rounded=0;" vertex="1" parent="78AGSwn7mPcis8Uo8uip-21">
          <mxGeometry x="445" y="1120" width="145" height="30" as="geometry" />
        </mxCell>
        <mxCell id="78AGSwn7mPcis8Uo8uip-42" value="Logo" style="ellipse;whiteSpace=wrap;html=1;aspect=fixed;" vertex="1" parent="78AGSwn7mPcis8Uo8uip-21">
          <mxGeometry x="495" y="110" width="40" height="40" as="geometry" />
        </mxCell>
        <mxCell id="78AGSwn7mPcis8Uo8uip-43" value="Home" style="text;html=1;align=center;verticalAlign=middle;whiteSpace=wrap;rounded=0;" vertex="1" parent="78AGSwn7mPcis8Uo8uip-21">
          <mxGeometry x="430" y="115" width="60" height="30" as="geometry" />
        </mxCell>
        <mxCell id="78AGSwn7mPcis8Uo8uip-44" value="GruppenÃ¼bersicht" style="text;html=1;align=center;verticalAlign=middle;whiteSpace=wrap;rounded=0;" vertex="1" parent="78AGSwn7mPcis8Uo8uip-21">
          <mxGeometry x="570" y="115" width="60" height="30" as="geometry" />
        </mxCell>
        <mxCell id="78AGSwn7mPcis8Uo8uip-93" value="" style="group" vertex="1" connectable="0" parent="78AGSwn7mPcis8Uo8uip-21">
          <mxGeometry x="260" y="960" width="530" height="60" as="geometry" />
        </mxCell>
        <mxCell id="78AGSwn7mPcis8Uo8uip-29" value="Gruppe finden" style="strokeWidth=1;shadow=0;dashed=0;align=center;html=1;shape=mxgraph.mockup.buttons.button;strokeColor=#666666;mainText=;buttonStyle=round;fontSize=17;fontStyle=0;fillColor=none;whiteSpace=wrap;rounded=0;labelBackgroundColor=none;" vertex="1" parent="78AGSwn7mPcis8Uo8uip-93">
          <mxGeometry width="114.19889502762432" height="60" as="geometry" />
        </mxCell>
        <mxCell id="78AGSwn7mPcis8Uo8uip-30" value="Datum abmachen" style="strokeWidth=1;shadow=0;dashed=0;align=center;html=1;shape=mxgraph.mockup.buttons.button;strokeColor=#666666;mainText=;buttonStyle=round;fontSize=17;fontStyle=0;fillColor=none;whiteSpace=wrap;rounded=0;labelBackgroundColor=none;" vertex="1" parent="78AGSwn7mPcis8Uo8uip-93">
          <mxGeometry x="143.4806629834254" width="111.27071823204417" height="60" as="geometry" />
        </mxCell>
        <mxCell id="78AGSwn7mPcis8Uo8uip-31" value="Vorbeikommen" style="strokeWidth=1;shadow=0;dashed=0;align=center;html=1;shape=mxgraph.mockup.buttons.button;strokeColor=#666666;mainText=;buttonStyle=round;fontSize=17;fontStyle=0;fillColor=none;whiteSpace=wrap;rounded=0;labelBackgroundColor=none;" vertex="1" parent="78AGSwn7mPcis8Uo8uip-93">
          <mxGeometry x="284.0331491712707" width="111.27071823204417" height="60" as="geometry" />
        </mxCell>
        <mxCell id="78AGSwn7mPcis8Uo8uip-32" value="Anmelden" style="strokeWidth=1;shadow=0;dashed=0;align=center;html=1;shape=mxgraph.mockup.buttons.button;strokeColor=#666666;mainText=;buttonStyle=round;fontSize=17;fontStyle=0;fillColor=none;whiteSpace=wrap;rounded=0;labelBackgroundColor=none;" vertex="1" parent="78AGSwn7mPcis8Uo8uip-93">
          <mxGeometry x="418.7292817679558" width="111.27071823204417" height="60" as="geometry" />
        </mxCell>
        <mxCell id="78AGSwn7mPcis8Uo8uip-94" value="" style="endArrow=classic;startArrow=classic;html=1;rounded=0;exitX=0.381;exitY=-0.005;exitDx=0;exitDy=0;exitPerimeter=0;entryX=0.381;entryY=0.095;entryDx=0;entryDy=0;entryPerimeter=0;" edge="1" parent="78AGSwn7mPcis8Uo8uip-21" source="78AGSwn7mPcis8Uo8uip-24" target="78AGSwn7mPcis8Uo8uip-21">
          <mxGeometry width="50" height="50" relative="1" as="geometry">
            <mxPoint x="350" y="170" as="sourcePoint" />
            <mxPoint x="400" y="120" as="targetPoint" />
          </mxGeometry>
        </mxCell>
        <mxCell id="78AGSwn7mPcis8Uo8uip-95" value="100px" style="edgeLabel;html=1;align=center;verticalAlign=middle;resizable=0;points=[];" vertex="1" connectable="0" parent="78AGSwn7mPcis8Uo8uip-94">
          <mxGeometry x="0.0162" relative="1" as="geometry">
            <mxPoint as="offset" />
          </mxGeometry>
        </mxCell>
        <mxCell id="78AGSwn7mPcis8Uo8uip-98" value="40px" style="edgeLabel;html=1;align=center;verticalAlign=middle;resizable=0;points=[];" vertex="1" connectable="0" parent="78AGSwn7mPcis8Uo8uip-21">
          <mxGeometry x="539.9975824175822" y="130" as="geometry">
            <mxPoint x="2" as="offset" />
          </mxGeometry>
        </mxCell>
        <mxCell id="78AGSwn7mPcis8Uo8uip-99" value="" style="endArrow=classic;startArrow=classic;html=1;rounded=0;exitX=0.647;exitY=0.2;exitDx=0;exitDy=0;exitPerimeter=0;entryX=0.381;entryY=0.095;entryDx=0;entryDy=0;entryPerimeter=0;" edge="1" parent="78AGSwn7mPcis8Uo8uip-21" source="78AGSwn7mPcis8Uo8uip-25">
          <mxGeometry width="50" height="50" relative="1" as="geometry">
            <mxPoint x="517.21" y="208" as="sourcePoint" />
            <mxPoint x="517.21" y="160" as="targetPoint" />
          </mxGeometry>
        </mxCell>
        <mxCell id="78AGSwn7mPcis8Uo8uip-100" value="150px" style="edgeLabel;html=1;align=center;verticalAlign=middle;resizable=0;points=[];" vertex="1" connectable="0" parent="78AGSwn7mPcis8Uo8uip-99">
          <mxGeometry x="0.0162" relative="1" as="geometry">
            <mxPoint as="offset" />
          </mxGeometry>
        </mxCell>
        <mxCell id="78AGSwn7mPcis8Uo8uip-101" value="" style="endArrow=classic;startArrow=classic;html=1;rounded=0;exitX=0.469;exitY=0.998;exitDx=0;exitDy=0;exitPerimeter=0;" edge="1" parent="78AGSwn7mPcis8Uo8uip-21" source="78AGSwn7mPcis8Uo8uip-24" target="78AGSwn7mPcis8Uo8uip-25">
          <mxGeometry width="50" height="50" relative="1" as="geometry">
            <mxPoint x="518.8899999999999" y="370" as="sourcePoint" />
            <mxPoint x="516.0999999999999" y="290" as="targetPoint" />
          </mxGeometry>
        </mxCell>
        <mxCell id="78AGSwn7mPcis8Uo8uip-102" value="150px" style="edgeLabel;html=1;align=center;verticalAlign=middle;resizable=0;points=[];" vertex="1" connectable="0" parent="78AGSwn7mPcis8Uo8uip-101">
          <mxGeometry x="0.0162" relative="1" as="geometry">
            <mxPoint as="offset" />
          </mxGeometry>
        </mxCell>
        <mxCell id="78AGSwn7mPcis8Uo8uip-103" value="" style="endArrow=classic;startArrow=classic;html=1;rounded=0;exitX=0.261;exitY=0.07;exitDx=0;exitDy=0;exitPerimeter=0;entryX=0.324;entryY=1;entryDx=0;entryDy=0;entryPerimeter=0;" edge="1" parent="78AGSwn7mPcis8Uo8uip-21" source="78AGSwn7mPcis8Uo8uip-27" target="78AGSwn7mPcis8Uo8uip-24">
          <mxGeometry width="50" height="50" relative="1" as="geometry">
            <mxPoint x="340" y="610" as="sourcePoint" />
            <mxPoint x="340" y="580" as="targetPoint" />
          </mxGeometry>
        </mxCell>
        <mxCell id="78AGSwn7mPcis8Uo8uip-104" value="100px" style="edgeLabel;html=1;align=center;verticalAlign=middle;resizable=0;points=[];" vertex="1" connectable="0" parent="78AGSwn7mPcis8Uo8uip-103">
          <mxGeometry x="0.0162" relative="1" as="geometry">
            <mxPoint as="offset" />
          </mxGeometry>
        </mxCell>
        <mxCell id="78AGSwn7mPcis8Uo8uip-105" value="" style="endArrow=classic;startArrow=classic;html=1;rounded=0;exitX=0.261;exitY=0.07;exitDx=0;exitDy=0;exitPerimeter=0;" edge="1" parent="78AGSwn7mPcis8Uo8uip-21">
          <mxGeometry width="50" height="50" relative="1" as="geometry">
            <mxPoint x="340" y="673" as="sourcePoint" />
            <mxPoint x="340" y="640" as="targetPoint" />
          </mxGeometry>
        </mxCell>
        <mxCell id="78AGSwn7mPcis8Uo8uip-106" value="50px" style="edgeLabel;html=1;align=center;verticalAlign=middle;resizable=0;points=[];" vertex="1" connectable="0" parent="78AGSwn7mPcis8Uo8uip-105">
          <mxGeometry x="0.0162" relative="1" as="geometry">
            <mxPoint as="offset" />
          </mxGeometry>
        </mxCell>
        <mxCell id="78AGSwn7mPcis8Uo8uip-107" value="" style="endArrow=classic;startArrow=classic;html=1;rounded=0;exitX=0.896;exitY=0.008;exitDx=0;exitDy=0;exitPerimeter=0;" edge="1" parent="78AGSwn7mPcis8Uo8uip-21" source="78AGSwn7mPcis8Uo8uip-29">
          <mxGeometry width="50" height="50" relative="1" as="geometry">
            <mxPoint x="360" y="903" as="sourcePoint" />
            <mxPoint x="360" y="870" as="targetPoint" />
          </mxGeometry>
        </mxCell>
        <mxCell id="78AGSwn7mPcis8Uo8uip-108" value="200px" style="edgeLabel;html=1;align=center;verticalAlign=middle;resizable=0;points=[];" vertex="1" connectable="0" parent="78AGSwn7mPcis8Uo8uip-107">
          <mxGeometry x="0.0162" relative="1" as="geometry">
            <mxPoint as="offset" />
          </mxGeometry>
        </mxCell>
        <mxCell id="78AGSwn7mPcis8Uo8uip-138" value="" style="endArrow=classic;startArrow=classic;html=1;rounded=0;exitX=0.896;exitY=0.008;exitDx=0;exitDy=0;exitPerimeter=0;entryX=-0.01;entryY=0.333;entryDx=0;entryDy=0;entryPerimeter=0;" edge="1" parent="78AGSwn7mPcis8Uo8uip-21" target="78AGSwn7mPcis8Uo8uip-30">
          <mxGeometry width="50" height="50" relative="1" as="geometry">
            <mxPoint x="382" y="980" as="sourcePoint" />
            <mxPoint x="380" y="890" as="targetPoint" />
          </mxGeometry>
        </mxCell>
        <mxCell id="78AGSwn7mPcis8Uo8uip-139" value="20px" style="edgeLabel;html=1;align=center;verticalAlign=middle;resizable=0;points=[];" vertex="1" connectable="0" parent="78AGSwn7mPcis8Uo8uip-138">
          <mxGeometry x="0.0162" relative="1" as="geometry">
            <mxPoint as="offset" />
          </mxGeometry>
        </mxCell>
        <mxCell id="78AGSwn7mPcis8Uo8uip-140" value="" style="endArrow=classic;startArrow=classic;html=1;rounded=0;exitX=0.896;exitY=0.008;exitDx=0;exitDy=0;exitPerimeter=0;" edge="1" parent="78AGSwn7mPcis8Uo8uip-21">
          <mxGeometry width="50" height="50" relative="1" as="geometry">
            <mxPoint x="592" y="1160" as="sourcePoint" />
            <mxPoint x="592" y="1110" as="targetPoint" />
          </mxGeometry>
        </mxCell>
        <mxCell id="78AGSwn7mPcis8Uo8uip-141" value="20px" style="edgeLabel;html=1;align=center;verticalAlign=middle;resizable=0;points=[];" vertex="1" connectable="0" parent="78AGSwn7mPcis8Uo8uip-140">
          <mxGeometry x="0.0162" relative="1" as="geometry">
            <mxPoint as="offset" />
          </mxGeometry>
        </mxCell>
        <mxCell id="78AGSwn7mPcis8Uo8uip-142" value="" style="endArrow=classic;startArrow=classic;html=1;rounded=0;exitX=0.896;exitY=0.008;exitDx=0;exitDy=0;exitPerimeter=0;entryX=0.514;entryY=0.879;entryDx=0;entryDy=0;entryPerimeter=0;" edge="1" parent="78AGSwn7mPcis8Uo8uip-21" target="78AGSwn7mPcis8Uo8uip-21">
          <mxGeometry width="50" height="50" relative="1" as="geometry">
            <mxPoint x="540" y="1120" as="sourcePoint" />
            <mxPoint x="540" y="1070" as="targetPoint" />
          </mxGeometry>
        </mxCell>
        <mxCell id="78AGSwn7mPcis8Uo8uip-143" value="50px" style="edgeLabel;html=1;align=center;verticalAlign=middle;resizable=0;points=[];" vertex="1" connectable="0" parent="78AGSwn7mPcis8Uo8uip-142">
          <mxGeometry x="0.0162" relative="1" as="geometry">
            <mxPoint as="offset" />
          </mxGeometry>
        </mxCell>
        <mxCell id="78AGSwn7mPcis8Uo8uip-45" value="" style="strokeWidth=1;shadow=0;dashed=0;align=center;html=1;shape=mxgraph.mockup.containers.browserWindow;rSize=0;strokeColor=#666666;mainText=,;recursiveResize=0;rounded=0;labelBackgroundColor=none;fontFamily=Verdana;fontSize=12" vertex="1" parent="1">
          <mxGeometry x="3740" y="890" width="1180" height="1090" as="geometry" />
        </mxCell>
        <mxCell id="78AGSwn7mPcis8Uo8uip-46" value="Page 1" style="strokeWidth=1;shadow=0;dashed=0;align=center;html=1;shape=mxgraph.mockup.containers.anchor;fontSize=17;fontColor=#666666;align=left;" vertex="1" parent="78AGSwn7mPcis8Uo8uip-45">
          <mxGeometry x="60" y="12" width="110" height="26" as="geometry" />
        </mxCell>
        <mxCell id="78AGSwn7mPcis8Uo8uip-47" value="https://www.default.com" style="strokeWidth=1;shadow=0;dashed=0;align=center;html=1;shape=mxgraph.mockup.containers.anchor;rSize=0;fontSize=17;fontColor=#666666;align=left;" vertex="1" parent="78AGSwn7mPcis8Uo8uip-45">
          <mxGeometry x="130" y="60" width="250" height="26" as="geometry" />
        </mxCell>
        <mxCell id="78AGSwn7mPcis8Uo8uip-48" value="" style="verticalLabelPosition=bottom;shadow=0;dashed=0;align=center;html=1;verticalAlign=top;strokeWidth=1;shape=mxgraph.mockup.graphics.simpleIcon;strokeColor=#999999;fillColor=#ffffff;rounded=0;labelBackgroundColor=none;fontFamily=Verdana;fontSize=12;fontColor=#000000;" vertex="1" parent="78AGSwn7mPcis8Uo8uip-45">
          <mxGeometry y="170" width="1180" height="150" as="geometry" />
        </mxCell>
        <mxCell id="78AGSwn7mPcis8Uo8uip-49" value="&lt;font style=&quot;font-size: 45px;&quot;&gt;Gruppen&lt;/font&gt;" style="text;html=1;points=[];align=left;verticalAlign=top;spacingTop=-4;fontSize=30;fontFamily=Verdana" vertex="1" parent="78AGSwn7mPcis8Uo8uip-45">
          <mxGeometry x="500" y="200" width="170" height="50" as="geometry" />
        </mxCell>
        <mxCell id="78AGSwn7mPcis8Uo8uip-50" value="" style="group" vertex="1" connectable="0" parent="78AGSwn7mPcis8Uo8uip-45">
          <mxGeometry x="160" y="370" width="850" height="200" as="geometry" />
        </mxCell>
        <mxCell id="78AGSwn7mPcis8Uo8uip-51" value="" style="group" vertex="1" connectable="0" parent="78AGSwn7mPcis8Uo8uip-50">
          <mxGeometry x="580" width="270" height="200" as="geometry" />
        </mxCell>
        <mxCell id="78AGSwn7mPcis8Uo8uip-52" value="Gruppe" style="strokeWidth=1;shadow=0;dashed=0;align=center;html=1;shape=mxgraph.mockup.buttons.button;strokeColor=#666666;mainText=;buttonStyle=round;fontSize=17;fontStyle=0;fillColor=none;whiteSpace=wrap;rounded=0;labelBackgroundColor=none;" vertex="1" parent="78AGSwn7mPcis8Uo8uip-51">
          <mxGeometry width="270" height="200" as="geometry" />
        </mxCell>
        <mxCell id="78AGSwn7mPcis8Uo8uip-54" value="Beschreibung" style="text;whiteSpace=wrap;html=1;" vertex="1" parent="78AGSwn7mPcis8Uo8uip-51">
          <mxGeometry x="90" y="165" width="90" height="30" as="geometry" />
        </mxCell>
        <mxCell id="78AGSwn7mPcis8Uo8uip-55" value="" style="group" vertex="1" connectable="0" parent="78AGSwn7mPcis8Uo8uip-50">
          <mxGeometry x="290" width="270" height="200" as="geometry" />
        </mxCell>
        <mxCell id="78AGSwn7mPcis8Uo8uip-56" value="Gruppe" style="strokeWidth=1;shadow=0;dashed=0;align=center;html=1;shape=mxgraph.mockup.buttons.button;strokeColor=#666666;mainText=;buttonStyle=round;fontSize=17;fontStyle=0;fillColor=none;whiteSpace=wrap;rounded=0;labelBackgroundColor=none;" vertex="1" parent="78AGSwn7mPcis8Uo8uip-55">
          <mxGeometry width="270" height="200" as="geometry" />
        </mxCell>
        <mxCell id="78AGSwn7mPcis8Uo8uip-58" value="Beschreibung" style="text;whiteSpace=wrap;html=1;" vertex="1" parent="78AGSwn7mPcis8Uo8uip-55">
          <mxGeometry x="90" y="165" width="90" height="30" as="geometry" />
        </mxCell>
        <mxCell id="78AGSwn7mPcis8Uo8uip-59" value="" style="group" vertex="1" connectable="0" parent="78AGSwn7mPcis8Uo8uip-50">
          <mxGeometry width="270" height="200" as="geometry" />
        </mxCell>
        <mxCell id="78AGSwn7mPcis8Uo8uip-60" value="Gruppe" style="strokeWidth=1;shadow=0;dashed=0;align=center;html=1;shape=mxgraph.mockup.buttons.button;strokeColor=#666666;mainText=;buttonStyle=round;fontSize=17;fontStyle=0;fillColor=none;whiteSpace=wrap;rounded=0;labelBackgroundColor=none;" vertex="1" parent="78AGSwn7mPcis8Uo8uip-59">
          <mxGeometry width="270" height="200" as="geometry" />
        </mxCell>
        <mxCell id="78AGSwn7mPcis8Uo8uip-62" value="Beschreibung" style="text;whiteSpace=wrap;html=1;" vertex="1" parent="78AGSwn7mPcis8Uo8uip-59">
          <mxGeometry x="90" y="165" width="90" height="30" as="geometry" />
        </mxCell>
        <mxCell id="78AGSwn7mPcis8Uo8uip-63" value="" style="group" vertex="1" connectable="0" parent="78AGSwn7mPcis8Uo8uip-45">
          <mxGeometry x="160" y="585" width="850" height="200" as="geometry" />
        </mxCell>
        <mxCell id="78AGSwn7mPcis8Uo8uip-64" value="" style="group" vertex="1" connectable="0" parent="78AGSwn7mPcis8Uo8uip-63">
          <mxGeometry x="580" width="270" height="200" as="geometry" />
        </mxCell>
        <mxCell id="78AGSwn7mPcis8Uo8uip-65" value="Gruppe" style="strokeWidth=1;shadow=0;dashed=0;align=center;html=1;shape=mxgraph.mockup.buttons.button;strokeColor=#666666;mainText=;buttonStyle=round;fontSize=17;fontStyle=0;fillColor=none;whiteSpace=wrap;rounded=0;labelBackgroundColor=none;" vertex="1" parent="78AGSwn7mPcis8Uo8uip-64">
          <mxGeometry width="270" height="200" as="geometry" />
        </mxCell>
        <mxCell id="78AGSwn7mPcis8Uo8uip-67" value="Beschreibung" style="text;whiteSpace=wrap;html=1;" vertex="1" parent="78AGSwn7mPcis8Uo8uip-64">
          <mxGeometry x="90" y="165" width="90" height="30" as="geometry" />
        </mxCell>
        <mxCell id="78AGSwn7mPcis8Uo8uip-68" value="" style="group" vertex="1" connectable="0" parent="78AGSwn7mPcis8Uo8uip-63">
          <mxGeometry x="290" width="270" height="200" as="geometry" />
        </mxCell>
        <mxCell id="78AGSwn7mPcis8Uo8uip-69" value="Gruppe" style="strokeWidth=1;shadow=0;dashed=0;align=center;html=1;shape=mxgraph.mockup.buttons.button;strokeColor=#666666;mainText=;buttonStyle=round;fontSize=17;fontStyle=0;fillColor=none;whiteSpace=wrap;rounded=0;labelBackgroundColor=none;" vertex="1" parent="78AGSwn7mPcis8Uo8uip-68">
          <mxGeometry width="270" height="200" as="geometry" />
        </mxCell>
        <mxCell id="78AGSwn7mPcis8Uo8uip-71" value="Beschreibung" style="text;whiteSpace=wrap;html=1;" vertex="1" parent="78AGSwn7mPcis8Uo8uip-68">
          <mxGeometry x="90" y="165" width="90" height="30" as="geometry" />
        </mxCell>
        <mxCell id="78AGSwn7mPcis8Uo8uip-72" value="" style="group" vertex="1" connectable="0" parent="78AGSwn7mPcis8Uo8uip-63">
          <mxGeometry width="270" height="200" as="geometry" />
        </mxCell>
        <mxCell id="78AGSwn7mPcis8Uo8uip-73" value="Gruppe" style="strokeWidth=1;shadow=0;dashed=0;align=center;html=1;shape=mxgraph.mockup.buttons.button;strokeColor=#666666;mainText=;buttonStyle=round;fontSize=17;fontStyle=0;fillColor=none;whiteSpace=wrap;rounded=0;labelBackgroundColor=none;" vertex="1" parent="78AGSwn7mPcis8Uo8uip-72">
          <mxGeometry width="270" height="200" as="geometry" />
        </mxCell>
        <mxCell id="78AGSwn7mPcis8Uo8uip-75" value="Beschreibung" style="text;whiteSpace=wrap;html=1;" vertex="1" parent="78AGSwn7mPcis8Uo8uip-72">
          <mxGeometry x="90" y="165" width="90" height="30" as="geometry" />
        </mxCell>
        <mxCell id="78AGSwn7mPcis8Uo8uip-76" value="" style="group" vertex="1" connectable="0" parent="78AGSwn7mPcis8Uo8uip-45">
          <mxGeometry x="160" y="805" width="850" height="200" as="geometry" />
        </mxCell>
        <mxCell id="78AGSwn7mPcis8Uo8uip-77" value="" style="group" vertex="1" connectable="0" parent="78AGSwn7mPcis8Uo8uip-76">
          <mxGeometry x="580" width="270" height="200" as="geometry" />
        </mxCell>
        <mxCell id="78AGSwn7mPcis8Uo8uip-78" value="Gruppe" style="strokeWidth=1;shadow=0;dashed=0;align=center;html=1;shape=mxgraph.mockup.buttons.button;strokeColor=#666666;mainText=;buttonStyle=round;fontSize=17;fontStyle=0;fillColor=none;whiteSpace=wrap;rounded=0;labelBackgroundColor=none;" vertex="1" parent="78AGSwn7mPcis8Uo8uip-77">
          <mxGeometry width="270" height="200" as="geometry" />
        </mxCell>
        <mxCell id="78AGSwn7mPcis8Uo8uip-80" value="Beschreibung" style="text;whiteSpace=wrap;html=1;" vertex="1" parent="78AGSwn7mPcis8Uo8uip-77">
          <mxGeometry x="90" y="165" width="90" height="30" as="geometry" />
        </mxCell>
        <mxCell id="78AGSwn7mPcis8Uo8uip-81" value="" style="group" vertex="1" connectable="0" parent="78AGSwn7mPcis8Uo8uip-76">
          <mxGeometry x="290" width="270" height="200" as="geometry" />
        </mxCell>
        <mxCell id="78AGSwn7mPcis8Uo8uip-82" value="Gruppe" style="strokeWidth=1;shadow=0;dashed=0;align=center;html=1;shape=mxgraph.mockup.buttons.button;strokeColor=#666666;mainText=;buttonStyle=round;fontSize=17;fontStyle=0;fillColor=none;whiteSpace=wrap;rounded=0;labelBackgroundColor=none;" vertex="1" parent="78AGSwn7mPcis8Uo8uip-81">
          <mxGeometry width="270" height="200" as="geometry" />
        </mxCell>
        <mxCell id="78AGSwn7mPcis8Uo8uip-84" value="Beschreibung" style="text;whiteSpace=wrap;html=1;" vertex="1" parent="78AGSwn7mPcis8Uo8uip-81">
          <mxGeometry x="90" y="165" width="90" height="30" as="geometry" />
        </mxCell>
        <mxCell id="78AGSwn7mPcis8Uo8uip-85" value="" style="group" vertex="1" connectable="0" parent="78AGSwn7mPcis8Uo8uip-76">
          <mxGeometry width="270" height="200" as="geometry" />
        </mxCell>
        <mxCell id="78AGSwn7mPcis8Uo8uip-86" value="Gruppe" style="strokeWidth=1;shadow=0;dashed=0;align=center;html=1;shape=mxgraph.mockup.buttons.button;strokeColor=#666666;mainText=;buttonStyle=round;fontSize=17;fontStyle=0;fillColor=none;whiteSpace=wrap;rounded=0;labelBackgroundColor=none;" vertex="1" parent="78AGSwn7mPcis8Uo8uip-85">
          <mxGeometry width="270" height="200" as="geometry" />
        </mxCell>
        <mxCell id="78AGSwn7mPcis8Uo8uip-88" value="Beschreibung" style="text;whiteSpace=wrap;html=1;" vertex="1" parent="78AGSwn7mPcis8Uo8uip-85">
          <mxGeometry x="90" y="165" width="90" height="30" as="geometry" />
        </mxCell>
        <mxCell id="78AGSwn7mPcis8Uo8uip-89" value="Copyright PfadiMH" style="text;html=1;align=center;verticalAlign=middle;whiteSpace=wrap;rounded=0;" vertex="1" parent="78AGSwn7mPcis8Uo8uip-45">
          <mxGeometry x="512.5" y="1050" width="145" height="30" as="geometry" />
        </mxCell>
        <mxCell id="78AGSwn7mPcis8Uo8uip-90" value="Logo" style="ellipse;whiteSpace=wrap;html=1;aspect=fixed;" vertex="1" parent="78AGSwn7mPcis8Uo8uip-45">
          <mxGeometry x="575" y="120" width="40" height="40" as="geometry" />
        </mxCell>
        <mxCell id="78AGSwn7mPcis8Uo8uip-91" value="Home" style="text;html=1;align=center;verticalAlign=middle;whiteSpace=wrap;rounded=0;" vertex="1" parent="78AGSwn7mPcis8Uo8uip-45">
          <mxGeometry x="510" y="125" width="60" height="30" as="geometry" />
        </mxCell>
        <mxCell id="78AGSwn7mPcis8Uo8uip-92" value="GruppenÃ¼bersicht" style="text;html=1;align=center;verticalAlign=middle;whiteSpace=wrap;rounded=0;" vertex="1" parent="78AGSwn7mPcis8Uo8uip-45">
          <mxGeometry x="650" y="125" width="60" height="30" as="geometry" />
        </mxCell>
        <mxCell id="78AGSwn7mPcis8Uo8uip-144" value="" style="endArrow=classic;startArrow=classic;html=1;rounded=0;" edge="1" parent="78AGSwn7mPcis8Uo8uip-45">
          <mxGeometry width="50" height="50" relative="1" as="geometry">
            <mxPoint x="584" y="320" as="sourcePoint" />
            <mxPoint x="586.5" y="260" as="targetPoint" />
          </mxGeometry>
        </mxCell>
        <mxCell id="78AGSwn7mPcis8Uo8uip-145" value="150px" style="edgeLabel;html=1;align=center;verticalAlign=middle;resizable=0;points=[];" vertex="1" connectable="0" parent="78AGSwn7mPcis8Uo8uip-144">
          <mxGeometry x="0.0162" relative="1" as="geometry">
            <mxPoint as="offset" />
          </mxGeometry>
        </mxCell>
        <mxCell id="78AGSwn7mPcis8Uo8uip-146" value="" style="endArrow=classic;startArrow=classic;html=1;rounded=0;" edge="1" parent="78AGSwn7mPcis8Uo8uip-45">
          <mxGeometry width="50" height="50" relative="1" as="geometry">
            <mxPoint x="583.75" y="230" as="sourcePoint" />
            <mxPoint x="586.25" y="170" as="targetPoint" />
          </mxGeometry>
        </mxCell>
        <mxCell id="78AGSwn7mPcis8Uo8uip-147" value="150px" style="edgeLabel;html=1;align=center;verticalAlign=middle;resizable=0;points=[];" vertex="1" connectable="0" parent="78AGSwn7mPcis8Uo8uip-146">
          <mxGeometry x="0.0162" relative="1" as="geometry">
            <mxPoint as="offset" />
          </mxGeometry>
        </mxCell>
        <mxCell id="78AGSwn7mPcis8Uo8uip-148" value="" style="endArrow=classic;startArrow=classic;html=1;rounded=0;exitX=0.381;exitY=-0.005;exitDx=0;exitDy=0;exitPerimeter=0;entryX=0.381;entryY=0.095;entryDx=0;entryDy=0;entryPerimeter=0;" edge="1" parent="78AGSwn7mPcis8Uo8uip-45">
          <mxGeometry width="50" height="50" relative="1" as="geometry">
            <mxPoint x="480" y="168" as="sourcePoint" />
            <mxPoint x="480" y="120" as="targetPoint" />
          </mxGeometry>
        </mxCell>
        <mxCell id="78AGSwn7mPcis8Uo8uip-149" value="100px" style="edgeLabel;html=1;align=center;verticalAlign=middle;resizable=0;points=[];" vertex="1" connectable="0" parent="78AGSwn7mPcis8Uo8uip-148">
          <mxGeometry x="0.0162" relative="1" as="geometry">
            <mxPoint as="offset" />
          </mxGeometry>
        </mxCell>
        <mxCell id="78AGSwn7mPcis8Uo8uip-150" value="40px" style="edgeLabel;html=1;align=center;verticalAlign=middle;resizable=0;points=[];" vertex="1" connectable="0" parent="78AGSwn7mPcis8Uo8uip-45">
          <mxGeometry x="619.9975824175817" y="140" as="geometry">
            <mxPoint x="2" as="offset" />
          </mxGeometry>
        </mxCell>
        <mxCell id="78AGSwn7mPcis8Uo8uip-151" value="40px" style="edgeLabel;html=1;align=center;verticalAlign=middle;resizable=0;points=[];" vertex="1" connectable="0" parent="78AGSwn7mPcis8Uo8uip-45">
          <mxGeometry x="566.3076923076924" y="140" as="geometry" />
        </mxCell>
        <mxCell id="78AGSwn7mPcis8Uo8uip-152" value="" style="endArrow=classic;startArrow=classic;html=1;rounded=0;" edge="1" parent="78AGSwn7mPcis8Uo8uip-45">
          <mxGeometry width="50" height="50" relative="1" as="geometry">
            <mxPoint x="593.75" y="370" as="sourcePoint" />
            <mxPoint x="594" y="320" as="targetPoint" />
          </mxGeometry>
        </mxCell>
        <mxCell id="78AGSwn7mPcis8Uo8uip-153" value="100px" style="edgeLabel;html=1;align=center;verticalAlign=middle;resizable=0;points=[];" vertex="1" connectable="0" parent="78AGSwn7mPcis8Uo8uip-152">
          <mxGeometry x="0.0162" relative="1" as="geometry">
            <mxPoint as="offset" />
          </mxGeometry>
        </mxCell>
        <mxCell id="78AGSwn7mPcis8Uo8uip-154" value="" style="endArrow=classic;startArrow=classic;html=1;rounded=0;" edge="1" parent="78AGSwn7mPcis8Uo8uip-45">
          <mxGeometry width="50" height="50" relative="1" as="geometry">
            <mxPoint x="440" y="380" as="sourcePoint" />
            <mxPoint x="430" y="380" as="targetPoint" />
          </mxGeometry>
        </mxCell>
        <mxCell id="78AGSwn7mPcis8Uo8uip-155" value="20px" style="edgeLabel;html=1;align=center;verticalAlign=middle;resizable=0;points=[];" vertex="1" connectable="0" parent="78AGSwn7mPcis8Uo8uip-154">
          <mxGeometry x="0.0162" relative="1" as="geometry">
            <mxPoint as="offset" />
          </mxGeometry>
        </mxCell>
        <mxCell id="78AGSwn7mPcis8Uo8uip-156" value="" style="endArrow=classic;startArrow=classic;html=1;rounded=0;" edge="1" parent="78AGSwn7mPcis8Uo8uip-45">
          <mxGeometry width="50" height="50" relative="1" as="geometry">
            <mxPoint x="480" y="579.9100000000001" as="sourcePoint" />
            <mxPoint x="470" y="579.9100000000001" as="targetPoint" />
          </mxGeometry>
        </mxCell>
        <mxCell id="78AGSwn7mPcis8Uo8uip-157" value="20px" style="edgeLabel;html=1;align=center;verticalAlign=middle;resizable=0;points=[];" vertex="1" connectable="0" parent="78AGSwn7mPcis8Uo8uip-156">
          <mxGeometry x="0.0162" relative="1" as="geometry">
            <mxPoint as="offset" />
          </mxGeometry>
        </mxCell>
        <mxCell id="78AGSwn7mPcis8Uo8uip-158" value="" style="endArrow=classic;startArrow=classic;html=1;rounded=0;exitX=0.896;exitY=0.008;exitDx=0;exitDy=0;exitPerimeter=0;" edge="1" parent="78AGSwn7mPcis8Uo8uip-45">
          <mxGeometry width="50" height="50" relative="1" as="geometry">
            <mxPoint x="670" y="1090" as="sourcePoint" />
            <mxPoint x="670" y="1040" as="targetPoint" />
          </mxGeometry>
        </mxCell>
        <mxCell id="78AGSwn7mPcis8Uo8uip-159" value="20px" style="edgeLabel;html=1;align=center;verticalAlign=middle;resizable=0;points=[];" vertex="1" connectable="0" parent="78AGSwn7mPcis8Uo8uip-158">
          <mxGeometry x="0.0162" relative="1" as="geometry">
            <mxPoint as="offset" />
          </mxGeometry>
        </mxCell>
        <mxCell id="78AGSwn7mPcis8Uo8uip-160" value="" style="endArrow=classic;startArrow=classic;html=1;rounded=0;exitX=0.896;exitY=0.008;exitDx=0;exitDy=0;exitPerimeter=0;" edge="1" parent="78AGSwn7mPcis8Uo8uip-45">
          <mxGeometry width="50" height="50" relative="1" as="geometry">
            <mxPoint x="620" y="1055" as="sourcePoint" />
            <mxPoint x="620" y="1005" as="targetPoint" />
          </mxGeometry>
        </mxCell>
        <mxCell id="78AGSwn7mPcis8Uo8uip-161" value="50px" style="edgeLabel;html=1;align=center;verticalAlign=middle;resizable=0;points=[];" vertex="1" connectable="0" parent="78AGSwn7mPcis8Uo8uip-160">
          <mxGeometry x="0.0162" relative="1" as="geometry">
            <mxPoint as="offset" />
          </mxGeometry>
        </mxCell>
        <mxCell id="78AGSwn7mPcis8Uo8uip-96" value="" style="endArrow=classic;startArrow=classic;html=1;rounded=0;exitX=0;exitY=0.5;exitDx=0;exitDy=0;" edge="1" parent="1">
          <mxGeometry width="50" height="50" relative="1" as="geometry">
            <mxPoint x="3104" y="1020" as="sourcePoint" />
            <mxPoint x="3089" y="1020" as="targetPoint" />
          </mxGeometry>
        </mxCell>
        <mxCell id="78AGSwn7mPcis8Uo8uip-97" value="40px" style="edgeLabel;html=1;align=center;verticalAlign=middle;resizable=0;points=[];" vertex="1" connectable="0" parent="78AGSwn7mPcis8Uo8uip-96">
          <mxGeometry x="0.0162" relative="1" as="geometry">
            <mxPoint as="offset" />
          </mxGeometry>
        </mxCell>
      </root>
    </mxGraphModel>
  </diagram>
</mxfile>
